<svg width="24" height="24" viewBox="0 0 24 24" fill="none" xmlns="http://www.w3.org/2000/svg">
<path fill-rule="evenodd" clip-rule="evenodd" d="M3.25 2C3.25 1.58579 3.58579 1.25 4 1.25H15C15.1989 1.25 15.3897 1.32902 15.5303 1.46967L20.5303 6.46967C20.671 6.61032 20.75 6.80109 20.75 7V22C20.75 22.4142 20.4142 22.75 20 22.75H4C3.58579 22.75 3.25 22.4142 3.25 22V2ZM4.75 2.75V21.25H19.25V7.31066L14.6893 2.75H4.75Z" fill="#333333"/>
<path fill-rule="evenodd" clip-rule="evenodd" d="M15 1.25C15.4142 1.25 15.75 1.58579 15.75 2V6.25H20C20.4142 6.25 20.75 6.58579 20.75 7C20.75 7.41421 20.4142 7.75 20 7.75H15C14.5858 7.75 14.25 7.41421 14.25 7V2C14.25 1.58579 14.5858 1.25 15 1.25Z" fill="#333333"/>
<path fill-rule="evenodd" clip-rule="evenodd" d="M9 14C9.27614 14 9.5 14.2239 9.5 14.5V17C9.5 17.2761 9.27614 17.5 9 17.5C8.72386 17.5 8.5 17.2761 8.5 17V14.5C8.5 14.2239 8.72386 14 9 14Z" fill="#333333"/>
<path fill-rule="evenodd" clip-rule="evenodd" d="M12 11.5C12.2761 11.5 12.5 11.7239 12.5 12V17C12.5 17.2761 12.2761 17.5 12 17.5C11.7239 17.5 11.5 17.2761 11.5 17V12C11.5 11.7239 11.7239 11.5 12 11.5Z" fill="#333333"/>
<path fill-rule="evenodd" clip-rule="evenodd" d="M15 13C15.2761 13 15.5 13.2239 15.5 13.5V17C15.5 17.2761 15.2761 17.5 15 17.5C14.7239 17.5 14.5 17.2761 14.5 17V13.5C14.5 13.2239 14.7239 13 15 13Z" fill="#333333"/>
</svg>
