<?xml version="1.0" encoding="utf-8"?>
<!--
  - Copyright (c) 2004-2024 The MZmine Development Team
  -
  - Permission is hereby granted, free of charge, to any person
  - obtaining a copy of this software and associated documentation
  - files (the "Software"), to deal in the Software without
  - restriction, including without limitation the rights to use,
  - copy, modify, merge, publish, distribute, sublicense, and/or sell
  - copies of the Software, and to permit persons to whom the
  - Software is furnished to do so, subject to the following
  - conditions:
  -
  - The above copyright notice and this permission notice shall be
  - included in all copies or substantial portions of the Software.
  -
  - THE SOFTWARE IS PROVIDED "AS IS", WITHOUT WARRANTY OF ANY KIND,
  - EXPRESS OR IMPLIED, INCLUDING BUT NOT LIMITED TO THE WARRANTIES
  - OF MERCHANTABILITY, FITNESS FOR A PARTICULAR PURPOSE AND
  - NONINFRINGEMENT. IN NO EVENT SHALL THE AUTHORS OR COPYRIGHT
  - HOLDERS BE LIABLE FOR ANY CLAIM, DAMAGES OR OTHER LIABILITY,
  - WHETHER IN AN ACTION OF CONTRACT, TORT OR OTHERWISE, ARISING
  - FROM, OUT OF OR IN CONNECTION WITH THE SOFTWARE OR THE USE OR
  - OTHER DEALINGS IN THE SOFTWARE.
  -->

<!-- Generator: Adobe Illustrator 16.0.0, SVG Export Plug-In . SVG Version: 6.00 Build 0)  -->
<!DOCTYPE svg PUBLIC "-//W3C//DTD SVG 1.1//EN" "http://www.w3.org/Graphics/SVG/1.1/DTD/svg11.dtd">
<svg version="1.1" xmlns="http://www.w3.org/2000/svg" x="0px" y="0px" width="751.5px"
  height="120.834px" viewBox="0 0 751.5 120.834" enable-background="new 0 0 751.5 120.834"
  xml:space="preserve">
<g id="Layer_2" display="none">
	<rect x="-49.69" y="-743.667" display="inline" fill="#212D56" width="915" height="768"/>
</g>
<g id="Layer_1">
	<g>
		<g>
			<path fill="#FFFFFF" d="M243.118,48.182l-45.244,51.432h45.244v18.225h-72.098V99.613l45.732-51.432h-45.732V29.953h72.098
				V48.182z"/>
		</g>
		<linearGradient id="SVGID_1_" gradientUnits="userSpaceOnUse" x1="28.7813" y1="73.001" x2="74.1709" y2="73.001">
			<stop  offset="0.4127" style="stop-color:#FFFFFF;stop-opacity:0"/>
			<stop  offset="0.7418" style="stop-color:#FFFFFF"/>
		</linearGradient>
		<path fill="url(#SVGID_1_)" d="M74.171,28.428c-1.559-0.172-3.178-0.264-4.865-0.264c-9.602,0-16.926,4.395-22.133,11.393v-6.348
			c0-1.791-1.465-3.256-3.256-3.256H28.781v87.885h20.344V67.551c0-13.672,4.231-21.158,16.927-21.158
			c3.188,0,5.897,0.715,8.119,2.133V28.428z"/>
		<g>
			<path fill="#FFFFFF" d="M121.877,28.158c-10.91,0-19.53,5.381-25.39,14.002c-2.351-4.031-5.49-7.262-9.4-9.602
				c-0.408-0.244-0.828-0.479-1.256-0.703c-1.024-0.539-2.103-1.02-3.225-1.445c-0.026-0.01-0.054-0.021-0.08-0.031
				c-0.369-0.15-0.75-0.279-1.14-0.41c-3.569-1.18-7.59-1.811-12.079-1.811c-1.061,0-2.101,0.051-3.101,0.16
				c-2.47,0.262-4.771,0.82-6.91,1.67c-0.75,0.291-1.47,0.621-2.181,0.98c-0.35,0.18-0.699,0.371-1.049,0.561
				c-0.681,0.379-1.351,0.801-2,1.26c-0.174,0.123-0.339,0.266-0.511,0.391c-0.311,0.227-0.615,0.461-0.916,0.703
				c-0.149,0.119-0.307,0.223-0.454,0.346c-0.31,0.25-0.6,0.51-0.899,0.781h14.92v1.83H49.437c-0.189,0.209-0.39,0.42-0.58,0.639
				c-0.58,0.66-1.14,1.361-1.68,2.082V36.84h-10.3v5.07h29.33v1.83h-41.3v5.07h31.209c0.781-0.5,1.631-0.922,2.561-1.271
				c0.561-0.199,1.15-0.379,1.77-0.539c0.201-0.051,0.41-0.1,0.631-0.141c0.21-0.049,0.42-0.09,0.64-0.119
				c0.149-0.031,0.3-0.051,0.45-0.07c0.29-0.051,0.6-0.09,0.91-0.121c0.16-0.02,0.32-0.039,0.48-0.049
				c0.309-0.031,0.629-0.051,0.959-0.07c0.2-0.01,0.4-0.02,0.6-0.02c0.16-0.01,0.311-0.01,0.471-0.01
				c0.15-0.012,0.311-0.012,0.46-0.012h0.16V46.4h0.239c0.121,0,0.24,0,0.361,0.01c0.119,0,0.239,0.01,0.359,0.02
				c0.09,0,0.18,0,0.27,0.01c0.28,0.02,0.561,0.041,0.83,0.08c0.1,0.01,0.19,0.02,0.28,0.029c0.37,0.051,0.729,0.102,1.08,0.182
				c0.47,0.09,0.92,0.199,1.36,0.34c1.31,0.41,2.51,0.99,3.58,1.74h0.039c4.42,3.1,6.74,9.209,6.74,18.41v50.617h20.51V67.221
				c0-13.83,4.07-20.832,16.76-20.832c10.74,0,15.461,6.512,15.461,20.832v50.617h20.51V65.43
				C154.587,42,143.196,28.158,121.877,28.158z"/>
			<rect x="37.196" y="105.848" fill="#FFFFFF" width="11.931" height="5.07"/>
			<rect x="41.327" y="99.01" fill="#FFFFFF" width="7.8" height="4.998"/>
			<path fill="#FFFFFF" d="M47.177,33.209c0-0.83-0.32-1.59-0.84-2.16c-0.061-0.07-0.13-0.141-0.2-0.209
				c-0.069-0.061-0.14-0.131-0.22-0.191c-0.46-0.35-1.01-0.58-1.62-0.66h-15.41v5.021h18.29V33.209z"/>
			<path fill="#FFFFFF" d="M37.167,55.529h13.71c0.771-2.01,1.8-3.709,3.149-5.07H37.167V55.529z"/>
			<path fill="#FFFFFF" d="M33.037,62.609h16.31c0.03-0.33,0.07-0.66,0.11-0.979c0.021-0.182,0.04-0.361,0.069-0.541
				c0-0.061,0.011-0.119,0.021-0.17c0.17-1.199,0.41-2.32,0.69-3.379h-17.2V62.609z"/>
			<rect x="37.196" y="71.34" fill="#FFFFFF" width="11.931" height="5.07"/>
			<rect x="28.887" y="92.051" fill="#FFFFFF" width="20.24" height="5.061"/>
			<rect x="33.037" y="84.82" fill="#FFFFFF" width="16.09" height="5.07"/>
			<rect x="28.887" y="112.748" fill="#FFFFFF" width="20.24" height="5.07"/>
			<rect x="28.887" y="78.24" fill="#FFFFFF" width="20.24" height="5.07"/>
			<rect x="20.917" y="105.848" fill="#FFFFFF" width="12" height="5.07"/>
			<rect x="16.897" y="84.82" fill="#FFFFFF" width="11.989" height="5.07"/>
			<rect x="8.865" y="112.746" fill="#FFFFFF" width="16.03" height="5.068"/>
			<rect x="12.882" y="105.848" fill="#FFFFFF" width="3.998" height="5.068"/>
			<rect x="24.897" y="98.941" fill="#FFFFFF" width="11.979" height="5.066"/>
			<polygon fill="#FFFFFF" points="16.897,57.541 16.897,62.609 28.776,62.59 28.897,62.59 28.897,57.52 28.776,57.52 			"/>
			<rect x="12.817" y="36.836" fill="#FFFFFF" width="3.982" height="5.07"/>
			<rect x="4.72" y="36.836" fill="#FFFFFF" width="3.983" height="5.07"/>
			<rect x="20.866" y="36.84" fill="#FFFFFF" width="12.051" height="5.07"/>
			<rect x="8.931" y="29.936" fill="#FFFFFF" width="15.967" height="5.07"/>
			<rect x="0.897" y="29.934" fill="#FFFFFF" width="3.951" height="5.07"/>
			<rect x="8.771" y="43.738" fill="#FFFFFF" width="3.982" height="5.07"/>
			<rect x="16.884" y="43.738" fill="#FFFFFF" width="4.014" height="5.07"/>
			<rect x="20.917" y="50.639" fill="#FFFFFF" width="12" height="5.072"/>
			<rect x="8.865" y="57.539" fill="#FFFFFF" width="4.047" height="5.07"/>
			<rect x="12.817" y="50.639" fill="#FFFFFF" width="3.982" height="5.07"/>
			<rect x="0.88" y="57.541" fill="#FFFFFF" width="3.985" height="5.068"/>
			<rect x="12.913" y="64.617" fill="#FFFFFF" width="11.992" height="5.07"/>
			<path fill="#FFFFFF" d="M28.917,69.689h20.21v-2.139c0-0.51,0.01-1.01,0.021-1.5c0.01-0.49,0.029-0.961,0.06-1.432h-20.29V69.689
				z"/>
			<rect x="8.834" y="84.824" fill="#FFFFFF" width="4.048" height="5.068"/>
			<rect x="4.72" y="78.244" fill="#FFFFFF" width="4.047" height="5.068"/>
			<rect x="12.913" y="92.045" fill="#FFFFFF" width="11.984" height="5.07"/>
			<rect x="12.913" y="78.244" fill="#FFFFFF" width="11.984" height="5.068"/>
			<rect x="16.897" y="71.34" fill="#FFFFFF" width="16.02" height="5.07"/>
			<rect x="16.884" y="98.945" fill="#FFFFFF" width="3.982" height="5.068"/>
			<rect x="0.833" y="112.768" fill="#FFFFFF" width="3.986" height="5.07"/>
			<rect x="8.865" y="71.342" fill="#FFFFFF" width="4.047" height="5.068"/>
			<rect x="4.816" y="64.682" fill="#FFFFFF" width="4.015" height="5.068"/>
			<rect x="4.88" y="92.047" fill="#FFFFFF" width="4.047" height="5.07"/>
		</g>
	</g>
	<g>
		<path fill="#FFFFFF" d="M377.553,29.955l-26.366,87.885h-21.971l-14.484-50.291c-0.163-0.488-0.163-1.139-0.163-1.627l0.163-3.418
			c0-0.488-0.326-0.813-0.814-0.813h-0.488l-17.252,56.148h-20.669l-26.365-87.885h21.483l14.811,49.801
			c0.162,0.488,0.162,1.139,0.162,1.627v3.094c0,0.488,0.325,0.813,0.813,0.813h0.325l16.927-55.334h20.181l15.461,50.127
			c0.163,0.488,0.163,1.139,0.163,1.627l-0.163,2.768c0,0.488,0.326,0.813,0.814,0.813h0.813l15.949-55.334H377.553z"/>
		<path fill="#FFFFFF" d="M390.407,29.955h20.507v87.885h-20.507V29.955z"/>
		<path fill="#FFFFFF" d="M500.75,48.182l-45.244,51.43h45.244v18.229h-72.099V99.611l45.733-51.43h-45.733V29.955h72.099V48.182z"
			/>
		<path fill="#FFFFFF" d="M593.676,103.518v14.484h-2.44c-10.091,0-17.252-4.068-20.995-10.742
			c-6.998,8.139-17.577,12.207-31.411,12.207c-17.251,0-28.318-9.766-28.318-25.715c0-14.973,10.253-25.877,31.736-28.48
			c18.391-1.953,22.297-5.045,25.227-7.162v-0.488c0-6.346-6.511-11.717-16.601-11.717c-11.718,0-17.252,5.533-20.67,7.975
			c-3.255,1.953-7.16,1.465-9.113-0.977l-6.999-8.137c4.72-6.348,16.927-16.764,35.317-16.764c24.087,0,38.409,11.555,38.409,34.828
			v29.457c0,3.418,1.627,5.533,3.418,6.186l0.162,0.162C592.699,99.123,593.676,100.588,593.676,103.518z M567.474,77.803v-2.766
			c-3.906,3.58-10.904,6.184-21.158,6.834c-11.066,0.977-16.112,3.906-16.112,11.068c0,5.533,4.558,9.113,11.393,9.113
			C555.755,102.053,567.474,96.193,567.474,77.803z"/>
		<path fill="#FFFFFF" d="M657.633,29.955v12.369c0,3.092-2.116,5.207-5.046,5.207h-1.627c-14.647,0-22.135,9.928-22.135,25.389
			v44.92h-20.506V29.955h15.298c1.791,0,3.256,1.465,3.256,3.254v9.604c6.51-7.813,16.111-12.857,29.132-12.857H657.633z"/>
		<path fill="#FFFFFF" d="M749.259,0.66v117.18H733.96c-1.79,0-3.255-1.465-3.255-3.256v-8.137
			c-6.51,7.813-15.786,13.02-27.342,13.02c-24.575,0-40.362-17.74-40.362-45.244c0-28.807,14.811-45.896,40.688-45.896
			c10.416,0,18.88,3.582,25.063,9.277V0.66H749.259z M728.752,74.385v-1.301c0-16.926-9.113-26.691-23.11-26.691
			c-14.159,0-22.134,11.066-22.134,27.504s8.463,27.506,22.622,27.506S728.752,91.475,728.752,74.385z"/>
	</g>
</g>
</svg>
