<?xml version="1.0" encoding="utf-8"?>
<!--
  - Copyright (c) 2004-2024 The MZmine Development Team
  -
  - Permission is hereby granted, free of charge, to any person
  - obtaining a copy of this software and associated documentation
  - files (the "Software"), to deal in the Software without
  - restriction, including without limitation the rights to use,
  - copy, modify, merge, publish, distribute, sublicense, and/or sell
  - copies of the Software, and to permit persons to whom the
  - Software is furnished to do so, subject to the following
  - conditions:
  -
  - The above copyright notice and this permission notice shall be
  - included in all copies or substantial portions of the Software.
  -
  - THE SOFTWARE IS PROVIDED "AS IS", WITHOUT WARRANTY OF ANY KIND,
  - EXPRESS OR IMPLIED, INCLUDING BUT NOT LIMITED TO THE WARRANTIES
  - OF MERCHANTABILITY, FITNESS FOR A PARTICULAR PURPOSE AND
  - NONINFRINGEMENT. IN NO EVENT SHALL THE AUTHORS OR COPYRIGHT
  - HOLDERS BE LIABLE FOR ANY CLAIM, DAMAGES OR OTHER LIABILITY,
  - WHETHER IN AN ACTION OF CONTRACT, TORT OR OTHERWISE, ARISING
  - FROM, OUT OF OR IN CONNECTION WITH THE SOFTWARE OR THE USE OR
  - OTHER DEALINGS IN THE SOFTWARE.
  -->

<!-- Generator: Adobe Illustrator 16.0.0, SVG Export Plug-In . SVG Version: 6.00 Build 0)  -->
<!DOCTYPE svg PUBLIC "-//W3C//DTD SVG 1.1//EN" "http://www.w3.org/Graphics/SVG/1.1/DTD/svg11.dtd">
<svg version="1.1" xmlns="http://www.w3.org/2000/svg" x="0px" y="0px"
  width="615.827px" height="93.657px" viewBox="0 0 615.827 93.657"
  enable-background="new 0 0 615.827 93.657"
  xml:space="preserve">
<g id="Layer_2" display="none">
	<rect x="-49.69" y="-235.5" display="inline" fill="#212D56" width="915" height="768"/>
</g>
<g id="Layer_1">
	<g>
		<g>
			<path fill="#FFFFFF" d="M243.118,21.013l-45.244,51.432h45.244v18.225h-72.098V72.444l45.732-51.432h-45.732V2.785h72.098V21.013
				z"/>
		</g>
		<linearGradient id="SVGID_1_" gradientUnits="userSpaceOnUse" x1="28.7803" y1="45.8325" x2="74.1709" y2="45.8325">
			<stop  offset="0.4127" style="stop-color:#FFFFFF;stop-opacity:0"/>
			<stop  offset="0.7418" style="stop-color:#FFFFFF"/>
		</linearGradient>
		<path fill="url(#SVGID_1_)" d="M74.171,1.259c-1.559-0.172-3.178-0.264-4.865-0.264c-9.602,0-16.926,4.395-22.133,11.393V6.04
			c0-1.79-1.465-3.255-3.256-3.255H28.78v87.884h20.344V40.382c0-13.672,4.232-21.158,16.928-21.158
			c3.188,0,5.896,0.715,8.119,2.133V1.259z"/>
		<g>
			<path fill="#FFFFFF" d="M121.876,0.99c-10.91,0-19.529,5.38-25.389,14.001c-2.352-4.031-5.49-7.261-9.4-9.601
				c-0.408-0.245-0.828-0.479-1.256-0.703c-1.025-0.54-2.104-1.021-3.225-1.446c-0.027-0.01-0.055-0.021-0.08-0.031
				c-0.369-0.149-0.75-0.279-1.141-0.41c-3.568-1.18-7.59-1.81-12.078-1.81c-1.061,0-2.102,0.05-3.102,0.16
				c-2.469,0.261-4.77,0.819-6.91,1.67c-0.75,0.29-1.469,0.62-2.18,0.979c-0.35,0.181-0.699,0.371-1.049,0.561
				c-0.682,0.38-1.352,0.801-2,1.26c-0.174,0.123-0.34,0.266-0.512,0.392c-0.311,0.227-0.615,0.461-0.916,0.702
				c-0.148,0.119-0.307,0.224-0.453,0.347c-0.311,0.25-0.6,0.51-0.9,0.78h14.92v1.83h-16.77c-0.189,0.209-0.391,0.42-0.58,0.64
				c-0.58,0.659-1.141,1.36-1.68,2.081V9.671H36.876v5.07h29.33v1.83H24.907v5.07h31.209c0.781-0.5,1.631-0.922,2.561-1.271
				c0.561-0.199,1.15-0.379,1.77-0.539c0.201-0.051,0.41-0.1,0.631-0.141c0.209-0.049,0.42-0.09,0.639-0.119
				c0.15-0.031,0.301-0.051,0.451-0.07c0.289-0.051,0.6-0.09,0.91-0.121c0.16-0.02,0.32-0.039,0.48-0.049
				c0.309-0.031,0.629-0.051,0.959-0.07c0.199-0.01,0.4-0.02,0.6-0.02c0.16-0.01,0.311-0.01,0.471-0.01
				c0.15-0.012,0.311-0.012,0.459-0.012h0.16v0.012h0.24c0.121,0,0.24,0,0.361,0.01c0.119,0,0.238,0.01,0.359,0.02
				c0.09,0,0.18,0,0.27,0.01c0.279,0.02,0.561,0.041,0.83,0.08c0.1,0.01,0.189,0.02,0.279,0.029c0.371,0.051,0.73,0.102,1.08,0.182
				c0.471,0.09,0.92,0.199,1.361,0.34c1.309,0.41,2.51,0.99,3.58,1.74h0.039c4.42,3.1,6.74,9.209,6.74,18.41v50.618h20.51V40.052
				c0-13.83,4.07-20.832,16.76-20.832c10.74,0,15.461,6.512,15.461,20.832v50.618h20.51V38.261
				C154.587,14.831,143.196,0.99,121.876,0.99z"/>
			<rect x="37.196" y="78.679" fill="#FFFFFF" width="11.93" height="5.07"/>
			<rect x="41.327" y="71.841" fill="#FFFFFF" width="7.799" height="4.999"/>
			<path fill="#FFFFFF" d="M47.177,6.04c0-0.83-0.32-1.59-0.84-2.16c-0.061-0.069-0.131-0.14-0.201-0.209
				c-0.068-0.061-0.139-0.131-0.219-0.19c-0.461-0.351-1.01-0.58-1.621-0.66h-15.41v5.021h18.291V6.04z"/>
			<path fill="#FFFFFF" d="M37.167,28.36h13.709c0.771-2.01,1.801-3.709,3.15-5.07H37.167V28.36z"/>
			<path fill="#FFFFFF" d="M33.036,35.44h16.311c0.029-0.33,0.07-0.66,0.109-0.979c0.021-0.182,0.041-0.361,0.07-0.541
				c0-0.061,0.01-0.119,0.02-0.17c0.17-1.199,0.41-2.32,0.691-3.379H33.036V35.44z"/>
			<rect x="37.196" y="44.171" fill="#FFFFFF" width="11.93" height="5.07"/>
			<rect x="28.886" y="64.882" fill="#FFFFFF" width="20.24" height="5.061"/>
			<rect x="33.036" y="57.651" fill="#FFFFFF" width="16.09" height="5.07"/>
			<rect x="28.886" y="85.58" fill="#FFFFFF" width="20.24" height="5.07"/>
			<rect x="28.886" y="51.071" fill="#FFFFFF" width="20.24" height="5.07"/>
			<rect x="20.917" y="78.679" fill="#FFFFFF" width="12" height="5.07"/>
			<rect x="16.897" y="57.651" fill="#FFFFFF" width="11.988" height="5.07"/>
			<rect x="8.864" y="85.578" fill="#FFFFFF" width="16.031" height="5.068"/>
			<rect x="12.882" y="78.679" fill="#FFFFFF" width="3.998" height="5.068"/>
			<rect x="24.897" y="71.772" fill="#FFFFFF" width="11.979" height="5.067"/>
			<polygon fill="#FFFFFF" points="16.897,30.372 16.897,35.44 28.776,35.421 28.897,35.421 28.897,30.351 28.776,30.351 			"/>
			<rect x="12.817" y="9.668" fill="#FFFFFF" width="3.982" height="5.069"/>
			<rect x="4.72" y="9.668" fill="#FFFFFF" width="3.982" height="5.069"/>
			<rect x="20.866" y="9.671" fill="#FFFFFF" width="12.051" height="5.07"/>
			<rect x="8.931" y="2.768" fill="#FFFFFF" width="15.967" height="5.069"/>
			<rect x="0.897" y="2.765" fill="#FFFFFF" width="3.951" height="5.071"/>
			<rect x="8.771" y="16.569" fill="#FFFFFF" width="3.982" height="5.07"/>
			<rect x="16.884" y="16.569" fill="#FFFFFF" width="4.014" height="5.07"/>
			<rect x="20.917" y="23.47" fill="#FFFFFF" width="12" height="5.072"/>
			<rect x="8.864" y="30.37" fill="#FFFFFF" width="4.047" height="5.07"/>
			<rect x="12.817" y="23.47" fill="#FFFFFF" width="3.982" height="5.07"/>
			<rect x="0.88" y="30.372" fill="#FFFFFF" width="3.984" height="5.068"/>
			<rect x="12.913" y="37.448" fill="#FFFFFF" width="11.992" height="5.07"/>
			<path fill="#FFFFFF" d="M28.917,42.521h20.209v-2.139c0-0.51,0.01-1.01,0.021-1.5c0.01-0.49,0.029-0.961,0.059-1.432H28.917
				V42.521z"/>
			<rect x="8.833" y="57.655" fill="#FFFFFF" width="4.049" height="5.068"/>
			<rect x="4.72" y="51.075" fill="#FFFFFF" width="4.047" height="5.068"/>
			<rect x="12.913" y="64.876" fill="#FFFFFF" width="11.984" height="5.07"/>
			<rect x="12.913" y="51.075" fill="#FFFFFF" width="11.984" height="5.068"/>
			<rect x="16.897" y="44.171" fill="#FFFFFF" width="16.02" height="5.07"/>
			<rect x="16.884" y="71.776" fill="#FFFFFF" width="3.982" height="5.069"/>
			<rect x="0.833" y="85.599" fill="#FFFFFF" width="3.986" height="5.07"/>
			<rect x="8.864" y="44.173" fill="#FFFFFF" width="4.047" height="5.068"/>
			<rect x="4.815" y="37.513" fill="#FFFFFF" width="4.016" height="5.068"/>
			<rect x="4.88" y="64.878" fill="#FFFFFF" width="4.047" height="5.07"/>
		</g>
	</g>
	<g>
		<path fill="#FFFFFF" d="M386.665,38.264v52.405h-20.506V40.055c0-14.322-4.719-20.832-15.461-20.832
			c-12.695,0-16.764,6.998-16.764,20.832v50.615h-20.506V40.055c0-13.997-5.371-20.832-15.299-20.832
			c-12.693,0-16.926,7.486-16.926,21.157v50.29H260.86V2.785h15.135c1.791,0,3.256,1.465,3.256,3.255v6.347
			c5.209-6.999,12.531-11.393,22.135-11.393c12.857,0,21.971,5.045,27.178,13.997c5.859-8.626,14.486-13.997,25.391-13.997
			C375.274,0.995,386.665,14.828,386.665,38.264z"/>
		<path fill="#FFFFFF" d="M400.911,2.785h20.506v87.885h-20.506V2.785z"/>
		<path fill="#FFFFFF" d="M514.11,38.752v51.917h-20.506V40.543c0-13.834-3.418-21.32-16.602-21.32
			c-12.857,0-19.691,7.649-19.691,21.32v50.126h-20.508V2.785h15.299c1.791,0,3.256,1.465,3.256,3.255v7.324
			c5.695-7.487,13.67-12.207,24.25-12.207C502.882,1.157,514.11,14.503,514.11,38.752z"/>
		<path fill="#FFFFFF" d="M613.919,47.867v2.929c0,1.791-1.465,3.255-3.256,3.255h-63.961c2.279,12.043,10.416,20.343,23.111,20.343
			c9.764,0,16.438-5.208,19.529-11.718c0.977-1.627,2.441-2.116,4.068-1.627l17.09,5.696c-6.021,15.949-20.344,25.876-40.688,25.876
			c-27.18,0-44.27-18.553-44.27-45.57c0-27.667,17.416-46.221,44.27-46.221C596.503,0.832,613.919,19.711,613.919,47.867z
			 M547.353,36.8h44.758c-2.93-10.742-10.904-17.74-22.297-17.74C558.095,19.06,550.282,26.058,547.353,36.8z"/>
	</g>
</g>
</svg>
